Coordinates
version=1
nRows=13
nColumns=40
inDegrees=yes

Units are S.I. units (second, meters, Newtons, ...)
If the header above contains a line with 'inDegrees', this indicates whether rotational values are in degrees (yes) or radians (no).

endheader
time	pelvis_tilt	pelvis_list	pelvis_rotation	pelvis_tx	pelvis_ty	pelvis_tz	hip_flexion_r	hip_adduction_r	hip_rotation_r	knee_angle_r	knee_angle_r_beta	ankle_angle_r	subtalar_angle_r	mtp_angle_r	hip_flexion_l	hip_adduction_l	hip_rotation_l	knee_angle_l	knee_angle_l_beta	ankle_angle_l	subtalar_angle_l	mtp_angle_l	lumbar_extension	lumbar_bending	lumbar_rotation	arm_flex_r	arm_add_r	arm_rot_r	elbow_flex_r	pro_sup_r	wrist_flex_r	wrist_dev_r	arm_flex_l	arm_add_l	arm_rot_l	elbow_flex_l	pro_sup_l	wrist_flex_l	wrist_dev_l
      6.08000000	     30.61238880	      6.52647156	   -176.93197075	      0.31008257	      0.84459775	     -0.61213474	     46.14996480	     -3.85441070	    -20.21380789	     16.36589026	      0.28563867	      2.91459994	      0.00000000	      0.00000000	     51.15217021	     -9.71950362	     -0.33432744	     20.39916637	      0.35603262	      1.85725924	      0.00000000	      0.00000000	     16.78182690	     10.71980042	     -5.12452021	     21.52562530	    -13.98937551	     56.80469967	      4.68816944	     88.16167462	      0.00000000	      0.00000000	     10.86096195	     -6.39340933	     66.87045537	      0.96807710	      5.18481329	      0.00000000	      0.00000000
      6.08500000	     30.66935506	      6.90837397	   -176.81217307	      0.30866048	      0.84456141	     -0.61185616	     45.94326515	     -3.59503090	    -20.65507330	     16.10134304	      0.28102145	      2.88761773	      0.00000000	      0.00000000	     51.20681392	     -9.91464312	     -0.03062294	     20.39673767	      0.35599023	      2.00026441	      0.00000000	      0.00000000	     17.29283130	     11.04340285	     -5.57577796	     21.24393330	    -14.05888803	     55.75112687	      4.90943474	     88.16934006	      0.00000000	      0.00000000	     10.61333105	     -6.18490923	     65.51981497	      0.98747286	      4.52090565	      0.00000000	      0.00000000
      6.09000000	     30.86231579	      6.89386389	   -176.75664794	      0.30761719	      0.84432569	     -0.61140802	     45.96041156	     -3.65067913	    -20.64192524	     15.91004060	      0.27768259	      2.94010507	      0.00000000	      0.00000000	     51.25819611	     -9.80001143	      0.09405633	     20.27247210	      0.35382139	      2.05661353	      0.00000000	      0.00000000	     17.85524016	     10.97804969	     -5.98564458	     21.12779717	    -13.97928913	     55.29622755	      4.88841363	     88.20091915	      0.00000000	      0.00000000	     10.41690258	     -6.06407993	     62.98340456	      0.99679363	      5.40466655	      0.00000000	      0.00000000
      6.09500000	     31.16699994	      7.00787438	   -176.99278456	      0.30675486	      0.84393240	     -0.61185024	     46.15994544	     -3.38043853	    -20.59072576	     15.77029787	      0.27524362	      2.89129160	      0.00000000	      0.00000000	     51.59622625	    -10.09538337	     -0.17880748	     20.46977470	      0.35726497	      2.23610378	      0.00000000	      0.00000000	     18.50163033	     11.07874123	     -6.14060614	     20.97356777	    -13.88838014	     54.91275686	      4.95758629	     88.23707013	      0.00000000	      0.00000000	     10.18239712	     -5.96939672	     61.03029622	      1.03257667	      5.33983483	      0.00000000	      0.00000000
      6.10000000	     31.13158614	      7.27189373	   -176.65426557	      0.30552951	      0.84405953	     -0.61103987	     45.95971821	     -3.47369600	    -21.36615133	     15.77985869	      0.27541049	      2.93372045	      0.00000000	      0.00000000	     51.36696511	     -9.94231820	      0.58812195	     20.04230611	      0.34980423	      2.16669135	      0.00000000	      0.00000000	     18.84827309	     11.24356139	     -6.77111348	     20.81484565	    -13.86104860	     53.81095449	      4.96269603	     88.28382960	      0.00000000	      0.00000000	     10.11468599	     -5.83653262	     58.27890506	      1.01679875	      7.31904209	      0.00000000	      0.00000000
      6.10500000	     31.74599028	      7.00807227	   -177.17179671	      0.30538567	      0.84317541	     -0.61180320	     46.65010305	     -3.33699015	    -20.64671148	     15.76420180	      0.27513723	      2.93960065	      0.00000000	      0.00000000	     52.05643982	    -10.15238188	     -0.22380442	     20.48241632	      0.35748560	      2.34695316	      0.00000000	      0.00000000	     19.70200782	     11.01444834	     -6.44750729	     20.60730611	    -13.86006572	     53.74460218	      5.15641116	     88.26869430	      0.00000000	      0.00000000	      9.84137319	     -5.81128503	     58.14759459	      1.10002273	      4.85828361	      0.00000000	      0.00000000
      6.11000000	     31.14104896	      8.82648707	   -177.11358357	      0.30275546	      0.84390161	     -0.61346233	     45.16480320	     -1.39040228	    -21.88747609	     14.33679416	      0.25022426	      2.52893990	      0.00000000	      0.00000000	     52.01649625	    -11.55779596	      2.11536090	     21.11773307	      0.36857397	      3.20472437	      0.00000000	      0.00000000	     19.63956394	     12.78361532	     -7.23914105	     20.38926391	    -13.91673447	     53.16977800	      5.23098189	     88.28772793	      0.00000000	      0.00000000	      9.64550101	     -5.64859161	     56.65059896	      1.12653574	      5.02164169	      0.00000000	      0.00000000
      6.11500000	     32.01495101	      8.01581319	   -176.96985870	      0.30360459	      0.84275783	     -0.61213208	     46.38316645	     -2.51218924	    -21.60729422	     14.99934705	      0.26178799	      2.77787760	      0.00000000	      0.00000000	     52.78282879	    -10.79074240	      0.56517947	     21.03832819	      0.36718810	      2.62301079	      0.00000000	      0.00000000	     20.73625914	     11.83467782	     -7.50178546	     20.36038664	    -13.82451183	     53.48490126	      5.27665376	     88.29447649	      0.00000000	      0.00000000	      9.52753878	     -5.62010289	     54.72711409	      1.15895820	      5.20658728	      0.00000000	      0.00000000
      6.12000000	     32.45664902	      7.28066635	   -177.21491240	      0.30343859	      0.84213633	     -0.61206032	     47.06549063	     -3.07574262	    -20.92560699	     15.44740793	      0.26960813	      2.98686234	      0.00000000	      0.00000000	     52.94689385	    -10.35334664	     -0.04457021	     20.95130179	      0.36566920	      2.58693786	      0.00000000	      0.00000000	     21.31404832	     11.08514947	     -7.13392529	     20.14975466	    -13.68429684	     52.52554704	      5.20120403	     88.31352714	      0.00000000	      0.00000000	      9.37100223	     -5.69926854	     53.74290781	      1.22063357	      5.34918870	      0.00000000	      0.00000000
      6.12500000	     31.71973440	      9.05419113	   -177.15063722	      0.30082339	      0.84295364	     -0.61386351	     45.48415017	     -1.14938229	    -22.09176212	     14.08274805	      0.24579032	      2.63730064	      0.00000000	      0.00000000	     52.75031197	    -11.73726276	      2.24097891	     21.54308845	      0.37599782	      3.46165559	      0.00000000	      0.00000000	     21.05994019	     12.78954471	     -7.90672522	     20.01276632	    -13.61425659	     52.06750115	      5.15128886	     88.33479485	      0.00000000	      0.00000000	      9.27630628	     -5.52866005	     51.98257053	      1.23906512	      5.60799941	      0.00000000	      0.00000000
      6.13000000	     31.59937074	      9.72771209	   -176.71016905	      0.29979228	      0.84296384	     -0.61357699	     45.02076947	     -0.77432686	    -22.83868634	     13.58947706	      0.23718112	      2.61458357	      0.00000000	      0.00000000	     52.96468438	    -11.92506304	      2.99976267	     21.81139490	      0.38068066	      3.51994399	      0.00000000	      0.00000000	     21.34667519	     13.27493312	     -8.72599232	     19.92476589	    -13.63216904	     51.74370073	      5.15031269	     88.30511838	      0.00000000	      0.00000000	      9.29323794	     -5.33633375	     49.62249666	      1.26832484	      5.77565388	      0.00000000	      0.00000000
      6.13500000	     31.73577808	      9.93364844	   -176.59422581	      0.29923402	      0.84261277	     -0.61368405	     45.08983741	     -0.68233050	    -23.13995616	     13.55889744	      0.23664740	      2.70720578	      0.00000000	      0.00000000	     53.29027613	    -11.98740926	      3.23691005	     22.08008262	      0.38537014	      3.59297571	      0.00000000	      0.00000000	     21.77539551	     13.34841602	     -9.03940756	     19.79539299	    -13.58550781	     51.43301372	      5.14442569	     88.35642373	      0.00000000	      0.00000000	      9.21647193	     -5.30734922	     47.96589497	      1.33570718	      6.11219442	      0.00000000	      0.00000000
      6.14000000	     31.60390263	     10.58474290	   -176.31337029	      0.29830116	      0.84256904	     -0.61377614	     44.64590762	     -0.16062384	    -23.68063813	     13.04673271	      0.22770844	      2.70610261	      0.00000000	      0.00000000	     53.53432004	    -12.31721734	      3.81356375	     22.46178805	      0.39203216	      3.80160436	      0.00000000	      0.00000000	     21.98379600	     13.84710008	     -9.72054492	     19.78096544	    -13.53895705	     51.19346675	      5.13304370	     88.40299765	      0.00000000	      0.00000000	      9.30423035	     -5.22433570	     44.52562003	      1.34641999	      8.25272095	      0.00000000	      0.00000000
